{
  "accessors": [
    {
      "bufferView": 2,
      "componentType": 5126,
      "count": 56,
      "max": [
        14.26912784576416,
        8.161796569824219,
        -1.7980130910873413
      ],
      "min": [
        -13.785656929016113,
        -7.577803134918213,
        -2.874420166015625
      ],
      "type": "VEC3"
    },
    {
      "bufferView": 2,
      "byteOffset": 672,
      "componentType": 5126,
      "count": 56,
      "max": [
        2.6925219831497316e-09,
        0.17122094333171844,
        0.9935703277587891
      ],
      "min": [
        -1.3595975012492545e-08,
        -0.12297967821359634,
        0.9852327108383179
      ],
      "type": "VEC3"
    },
    {
      "bufferView": 3,
      "componentType": 5126,
      "count": 56,
      "max": [
        1.0,
        1.7621887593577412e-07,
        2.5082753651872736e-08,
        1.0
      ],
      "min": [
        1.0,
        -2.6843829914469097e-07,
        -3.0624605074081046e-08,
        -1.0
      ],
      "type": "VEC4"
    },
    {
      "bufferView": 1,
      "componentType": 5126,
      "count": 56,
      "max": [
        0.9892125129699707,
        0.9799705743789673
      ],
      "min": [
        0.0058692097663879395,
        0.2894321382045746
      ],
      "type": "VEC2"
    },
    {
      "bufferView": 0,
      "componentType": 5125,
      "count": 84,
      "type": "SCALAR"
    },
    {
      "bufferView": 2,
      "byteOffset": 1344,
      "componentType": 5126,
      "count": 1677,
      "max": [
        26.666553497314453,
        19.531169891357422,
        2.1941428184509277
      ],
      "min": [
        -3.691073179244995,
        -1.3444151878356934,
        -11.030279159545898
      ],
      "type": "VEC3"
    },
    {
      "bufferView": 2,
      "byteOffset": 21468,
      "componentType": 5126,
      "count": 1677,
      "max": [
        0.99998939037323,
        1.0,
        1.0
      ],
      "min": [
        -0.99998939037323,
        -1.0,
        -1.0
      ],
      "type": "VEC3"
    },
    {
      "bufferView": 3,
      "byteOffset": 896,
      "componentType": 5126,
      "count": 1677,
      "max": [
        0.9999910593032837,
        1.0,
        1.0,
        1.0
      ],
      "min": [
        -0.9999963641166687,
        -1.0,
        -1.0,
        1.0
      ],
      "type": "VEC4"
    },
    {
      "bufferView": 1,
      "byteOffset": 448,
      "componentType": 5126,
      "count": 1677,
      "max": [
        0.988828718662262,
        0.943098247051239
      ],
      "min": [
        0.011171316727995872,
        0.011171316727995872
      ],
      "type": "VEC2"
    },
    {
      "bufferView": 0,
      "byteOffset": 336,
      "componentType": 5125,
      "count": 6996,
      "type": "SCALAR"
    },
    {
      "bufferView": 2,
      "byteOffset": 41592,
      "componentType": 5126,
      "count": 3367,
      "max": [
        24.442949295043945,
        10.424479484558105,
        2.1275908946990967
      ],
      "min": [
        -6.353819370269775,
        -4.733241081237793,
        -8.525681495666504
      ],
      "type": "VEC3"
    },
    {
      "bufferView": 2,
      "byteOffset": 81996,
      "componentType": 5126,
      "count": 3367,
      "max": [
        1.0,
        0.9937490224838257,
        1.0
      ],
      "min": [
        -1.0,
        -0.9937456250190735,
        -1.0
      ],
      "type": "VEC3"
    },
    {
      "bufferView": 3,
      "byteOffset": 27728,
      "componentType": 5126,
      "count": 3367,
      "max": [
        1.0,
        0.999984860420227,
        0.9954541325569153,
        1.0
      ],
      "min": [
        -1.0,
        -0.9999998807907104,
        -0.9992237091064453,
        1.0
      ],
      "type": "VEC4"
    },
    {
      "bufferView": 1,
      "byteOffset": 13864,
      "componentType": 5126,
      "count": 3367,
      "max": [
        0.9954937696456909,
        0.9808829426765442
      ],
      "min": [
        0.00450618751347065,
        0.00450618751347065
      ],
      "type": "VEC2"
    },
    {
      "bufferView": 0,
      "byteOffset": 28320,
      "componentType": 5125,
      "count": 14925,
      "type": "SCALAR"
    }
  ],
  "asset": {
    "extras": {
      "author": "gorzi (https://sketchfab.com/gorzi90)",
      "license": "CC-BY-4.0 (http://creativecommons.org/licenses/by/4.0/)",
      "source": "https://sketchfab.com/3d-models/old-radio-60279aff8aae432a9933b9fb6374c2f1",
      "title": "Old Radio"
    },
    "generator": "Sketchfab-12.66.0",
    "version": "2.0"
  },
  "bufferViews": [
    {
      "buffer": 0,
      "byteLength": 88020,
      "name": "floatBufferViews",
      "target": 34963
    },
    {
      "buffer": 0,
      "byteLength": 40800,
      "byteOffset": 88020,
      "byteStride": 8,
      "name": "floatBufferViews",
      "target": 34962
    },
    {
      "buffer": 0,
      "byteLength": 122400,
      "byteOffset": 128820,
      "byteStride": 12,
      "name": "floatBufferViews",
      "target": 34962
    },
    {
      "buffer": 0,
      "byteLength": 81600,
      "byteOffset": 251220,
      "byteStride": 16,
      "name": "floatBufferViews",
      "target": 34962
    }
  ],
  "buffers": [
    {
      "byteLength": 332820,
      "uri": "scene.bin"
    }
  ],
  "images": [
    {
      "uri": "textures/front_baseColor.png"
    },
    {
      "uri": "textures/front_metallicRoughness.png"
    },
    {
      "uri": "textures/front_normal.png"
    },
    {
      "uri": "textures/base_baseColor.png"
    },
    {
      "uri": "textures/base_metallicRoughness.png"
    },
    {
      "uri": "textures/base_normal.png"
    },
    {
      "uri": "textures/others_baseColor.png"
    },
    {
      "uri": "textures/others_metallicRoughness.png"
    },
    {
      "uri": "textures/others_normal.png"
    }
  ],
  "materials": [
    {
      "doubleSided": true,
      "name": "front",
      "normalTexture": {
        "index": 2
      },
      "pbrMetallicRoughness": {
        "baseColorTexture": {
          "index": 0
        },
        "metallicRoughnessTexture": {
          "index": 1
        }
      }
    },
    {
      "doubleSided": true,
      "name": "base",
      "normalTexture": {
        "index": 5
      },
      "pbrMetallicRoughness": {
        "baseColorTexture": {
          "index": 3
        },
        "metallicRoughnessTexture": {
          "index": 4
        }
      }
    },
    {
      "doubleSided": true,
      "name": "others",
      "normalTexture": {
        "index": 8
      },
      "pbrMetallicRoughness": {
        "baseColorTexture": {
          "index": 6
        },
        "metallicRoughnessTexture": {
          "index": 7
        }
      }
    }
  ],
  "meshes": [
    {
      "name": "Object_0",
      "primitives": [
        {
          "attributes": {
            "NORMAL": 1,
            "POSITION": 0,
            "TANGENT": 2,
            "TEXCOORD_0": 3
          },
          "indices": 4,
          "material": 0,
          "mode": 4
        }
      ]
    },
    {
      "name": "Object_1",
      "primitives": [
        {
          "attributes": {
            "NORMAL": 6,
            "POSITION": 5,
            "TANGENT": 7,
            "TEXCOORD_0": 8
          },
          "indices": 9,
          "material": 1,
          "mode": 4
        }
      ]
    },
    {
      "name": "Object_2",
      "primitives": [
        {
          "attributes": {
            "NORMAL": 11,
            "POSITION": 10,
            "TANGENT": 12,
            "TEXCOORD_0": 13
          },
          "indices": 14,
          "material": 2,
          "mode": 4
        }
      ]
    }
  ],
  "nodes": [
    {
      "children": [
        1
      ],
      "matrix": [
        1.0,
        0.0,
        0.0,
        0.0,
        0.0,
        2.220446049250313e-16,
        -1.0,
        0.0,
        0.0,
        1.0,
        2.220446049250313e-16,
        0.0,
        0.0,
        0.0,
        0.0,
        1.0
      ],
      "name": "Sketchfab_model"
    },
    {
      "children": [
        2
      ],
      "name": "root"
    },
    {
      "children": [
        3,
        5,
        7
      ],
      "matrix": [
        1.0,
        0.0,
        0.0,
        0.0,
        0.0,
        2.220446049250313e-16,
        1.0,
        0.0,
        0.0,
        -1.0,
        2.220446049250313e-16,
        0.0,
        0.0,
        0.0,
        0.0,
        1.0
      ],
      "name": "GLTF_SceneRootNode"
    },
    {
      "children": [
        4
      ],
      "name": "front_0"
    },
    {
      "mesh": 0,
      "name": "Object_4"
    },
    {
      "children": [
        6
      ],
      "matrix": [
        1.0,
        0.0,
        0.0,
        0.0,
        0.0,
        1.0,
        0.0,
        0.0,
        0.0,
        0.0,
        1.0,
        0.0,
        -11.487738609313965,
        -9.597800254821777,
        -2.1602554321289063,
        1.0
      ],
      "name": "base_1"
    },
    {
      "mesh": 1,
      "name": "Object_6"
    },
    {
      "children": [
        8
      ],
      "matrix": [
        1.0,
        0.0,
        0.0,
        0.0,
        0.0,
        1.0,
        0.0,
        0.0,
        0.0,
        0.0,
        1.0,
        0.0,
        -9.04456615447998,
        -4.3535027503967285,
        -2.3273863792419434,
        1.0
      ],
      "name": "other_2"
    },
    {
      "mesh": 2,
      "name": "Object_8"
    }
  ],
  "samplers": [
    {
      "magFilter": 9729,
      "minFilter": 9987,
      "wrapS": 10497,
      "wrapT": 10497
    }
  ],
  "scene": 0,
  "scenes": [
    {
      "name": "Sketchfab_Scene",
      "nodes": [
        0
      ]
    }
  ],
  "textures": [
    {
      "sampler": 0,
      "source": 0
    },
    {
      "sampler": 0,
      "source": 1
    },
    {
      "sampler": 0,
      "source": 2
    },
    {
      "sampler": 0,
      "source": 3
    },
    {
      "sampler": 0,
      "source": 4
    },
    {
      "sampler": 0,
      "source": 5
    },
    {
      "sampler": 0,
      "source": 6
    },
    {
      "sampler": 0,
      "source": 7
    },
    {
      "sampler": 0,
      "source": 8
    }
  ]
}
